<svg xmlns="http://www.w3.org/2000/svg" xmlns:xlink="http://www.w3.org/1999/xlink" version="1.1" x="0px" y="0px" viewBox="0 0 512 512">
    <defs>
        <g id="avatar">
            <path d="M254.1,275.9c0.5,0,1.1,0,1.7,0c0.2,0,0.4,0,0.6,0c0.3,0,0.7,0,1.1,0c31.1-0.5,56.2-11.5,74.7-32.3
			c40.8-46,34-124.9,33.3-132.4c-2.7-56.5-29.4-83.5-51.4-96.2c-16.4-9.4-35.6-14.5-57-14.9h-0.7c-0.1,0-0.3,0-0.4,0h-0.6
			c-11.8,0-34.9,1.9-57,14.5c-22.3,12.6-49.4,39.7-52.1,96.6c-0.7,7.5-7.5,86.4,33.3,132.4C198,264.4,223.1,275.3,254.1,275.9z
			 M174.5,113.8c0-0.3,0.1-0.6,0.1-0.8c3.5-76,57.5-84.2,80.6-84.2h0.4c0.2,0,0.5,0,0.8,0c28.6,0.6,77.3,12.3,80.6,84.2
			c0,0.3,0,0.6,0.1,0.8c0.1,0.7,7.5,72.8-26.2,110.8c-13.4,15.1-31.2,22.5-54.6,22.7c-0.2,0-0.3,0-0.5,0l0,0c-0.2,0-0.3,0-0.5,0
			c-23.3-0.2-41.2-7.6-54.5-22.7C167.2,186.8,174.4,114.4,174.5,113.8z"/>
            <path d="M473.7,406.7c0-0.1,0-0.2,0-0.3c0-0.8-0.1-1.7-0.1-2.7c-0.6-21-2-70.1-48-85.8c-0.3-0.1-0.7-0.2-1.1-0.3
			c-47.8-12.2-87.6-39.8-88-40.1c-6.5-4.6-15.4-3-19.9,3.5c-4.6,6.5-3,15.4,3.5,19.9c1.8,1.3,44,30.6,96.8,44.2
			c24.7,8.8,27.5,35.2,28.2,59.4c0,1,0,1.8,0.1,2.7c0.1,9.5-0.5,24.3-2.2,32.8c-17.2,9.8-84.5,43.5-186.9,43.5
			c-102,0-169.7-33.8-187-43.6c-1.7-8.5-2.4-23.2-2.2-32.8c0-0.8,0.1-1.7,0.1-2.7c0.7-24.2,3.5-50.6,28.2-59.4
			c52.8-13.6,95-43,96.8-44.2c6.5-4.6,8.1-13.5,3.5-19.9c-4.6-6.5-13.5-8.1-19.9-3.5c-0.4,0.3-40,27.9-88,40.1
			c-0.4,0.1-0.7,0.2-1.1,0.3c-46,15.8-47.4,64.9-48,85.8c0,1,0,1.8-0.1,2.7c0,0.1,0,0.2,0,0.3c-0.1,5.5-0.2,33.8,5.4,48
			c1.1,2.8,3,5.1,5.5,6.7c3.2,2.1,79.4,50.7,207,50.7s203.8-48.7,207-50.7c2.4-1.6,4.5-3.9,5.5-6.7
			C473.9,440.5,473.8,412.2,473.7,406.7z"/>
        </g>

        <g id="hide">
            <path d="M97.9,358.9c1.6,1.3,3.5,1.9,5.4,1.9c2.5,0,5.1-1.1,6.8-3.3c3-3.7,2.4-9.2-1.4-12.2c-6.9-5.5-13.7-11.5-20-17.9l-64.1-64.1
		l66.2-66.2c63.6-63.6,156.1-85.3,241.4-56.7c4.5,1.5,9.5-0.9,11-5.5c1.5-4.5-0.9-9.5-5.5-11c-91.6-30.7-190.9-7.4-259.2,60.8
		L0,263.3l76.4,76.4C83.2,346.5,90.4,353,97.9,358.9z"/>
            <path d="M435.6,184.9c-11.7-11.7-24.5-22.2-38.1-31.4c-4-2.7-9.4-1.6-12,2.4c-2.7,4-1.6,9.4,2.4,12c12.7,8.5,24.6,18.3,35.5,29.2
		l64.1,64.1l-66.2,66.2c-64,64-160.5,85.7-245.8,55.1c-4.5-1.6-9.5,0.7-11.1,5.2c-1.6,4.5,0.7,9.5,5.2,11.1
		c27.6,9.9,56.3,14.7,84.8,14.7c66.1,0,131.1-25.8,179.2-73.9l78.4-78.4L435.6,184.9z"/>
            <path d="M264.8,362.2c-18.7,0-36.9-5.2-52.6-15c-4-2.5-9.4-1.3-11.9,2.8c-2.5,4.1-1.3,9.4,2.8,11.9c18.5,11.5,39.9,17.6,61.8,17.6
		c64.5,0,117.1-52.5,117.1-117.1c0-23.3-6.8-45.8-19.7-65c-2.7-4-8.1-5-12-2.4c-4,2.7-5,8.1-2.4,12c11,16.4,16.8,35.6,16.8,55.4
		C364.5,317.5,319.8,362.2,264.8,362.2z"/>
            <path d="M264.8,162.8c17.9,0,35.5,4.8,50.8,13.9c4.1,2.4,9.4,1.1,11.9-3c2.4-4.1,1.1-9.4-3-11.9c-18-10.7-38.6-16.3-59.6-16.3
		c-64.5,0-117.1,52.5-117.1,117.1c0,18.1,4,35.4,11.9,51.5c1.5,3.1,4.6,4.9,7.8,4.9c1.3,0,2.6-0.3,3.8-0.9c4.3-2.1,6.1-7.3,4-11.6
		c-6.7-13.7-10.1-28.5-10.1-43.9C165.1,207.5,209.8,162.8,264.8,162.8z"/>
            <path d="M473.6,48.3c-3.4-3.4-8.9-3.4-12.3,0L58.2,451.5c-3.4,3.4-3.4,8.9,0,12.3c1.7,1.7,3.9,2.5,6.1,2.5c2.2,0,4.4-0.8,6.1-2.5
		L473.6,60.5C477,57.2,477,51.7,473.6,48.3z"/>
        </g>

        <g id="mail">
            <g>
                <path d="M414.5,355.1c-2,0-4.1-0.7-5.6-2.2l-95-89.1c-3.3-3.1-3.5-8.3-0.4-11.7c3.1-3.4,8.3-3.5,11.7-0.4l95,89.1
			c3.3,3.1,3.5,8.3,0.4,11.7C418.9,354.3,416.8,355.1,414.5,355.1z"/>
                <path d="M97.4,355.1c-2.2,0-4.4-0.9-6-2.6c-3.1-3.3-3-8.6,0.4-11.7l95-89.1c3.3-3.1,8.6-3,11.7,0.4c3.1,3.3,3,8.6-0.4,11.7
			l-95,89.1C101.5,354.4,99.5,355.1,97.4,355.1z"/>
            </g>
            <path d="M470.7,438H41.3C18.5,438,0,419.5,0,396.7V115.3C0,92.5,18.5,74,41.3,74h429.5c22.8,0,41.3,18.5,41.3,41.3v281.4
		C512,419.5,493.5,438,470.7,438z M41.3,90.5c-13.7,0-24.8,11.1-24.8,24.8v281.4c0,13.7,11.1,24.8,24.8,24.8h429.5
		c13.7,0,24.8-11.1,24.8-24.8V115.3c0-13.7-11.1-24.8-24.8-24.8H41.3z"/>
            <path d="M256,297.5c-11,0-22-3.6-30.3-10.9l-212-184.9c-3.4-3-3.8-8.2-0.8-11.7c3-3.4,8.2-3.7,11.7-0.8l212,184.9
		c10.5,9.2,28.4,9.2,38.9,0L487.2,89.5c3.4-3,8.6-2.7,11.7,0.8c3,3.5,2.6,8.7-0.8,11.7L286.3,286.5C277.9,293.8,267,297.5,256,297.5
		z"/>
        </g>

        <g id="security">
            <path d="M443.5,91.5C399.3,47.3,340.5,23,278.1,23C214.5,23,155,48.1,110.6,93.6c-4.8,4.9-4.7,12.9,0.2,17.8
			c4.9,4.8,12.9,4.7,17.8-0.2c39.7-40.6,92.7-63,149.4-63c115.1-0.1,208.7,93.5,208.7,208.6s-93.6,208.7-208.7,208.7
			S69.4,372,69.4,256.9v-2.6l20.8,20.8c2.4,2.4,5.7,3.7,8.9,3.7c3.3,0,6.4-1.3,8.9-3.7c4.9-4.9,4.9-12.9,0-17.8l-42.2-42.3
			c-4.9-4.9-12.9-4.9-17.8,0L5.7,257.2c-4.9,4.9-4.9,12.9,0,17.8c2.4,2.4,5.7,3.7,8.9,3.7s6.4-1.3,8.9-3.7l20.8-20.8v2.6
			c0,62.4,24.3,121.2,68.5,165.4s102.9,68.5,165.4,68.5s121.2-24.3,165.4-68.5S512,319.3,512,256.9S487.7,135.7,443.5,91.5z"/>
            <path d="M278.1,120.9c-40.9,0-74.2,33.3-74.2,74.2v35.8h-23.1c-6.9,0-12.6,5.7-12.6,12.6v125.6c0,6.9,5.7,12.6,12.6,12.6h194.7
			c6.9,0,12.6-5.7,12.6-12.6V243.6c0-6.9-5.7-12.6-12.6-12.6h-23.1v-35.8C352.4,154.3,319,120.9,278.1,120.9z M229.1,195.2
			c0-27.1,22-49,49-49s49,22,49,49V231h-98L229.1,195.2L229.1,195.2z M362.9,356.5H193.4V256.1h169.5V356.5z"/>
        </g>

        <g id="social-media">
            <g>
                <path d="M496.64,300.373c2.56-14.507,4.267-29.013,4.267-43.52c0-133.973-109.227-243.2-243.2-243.2
				c-14.507,0-29.013,1.707-43.52,4.267C192.853,5.973,168.96,0,144.213,0C64.853,0,0,64.853,0,144.213
				c0,23.893,5.973,48.64,17.92,69.973c-2.56,14.507-4.267,29.013-4.267,43.52c0,133.973,109.227,243.2,243.2,243.2
				c14.507,0,29.013-1.707,43.52-4.267c18.773,10.24,41.813,15.36,69.973,15.36C449.707,512,512,449.707,512,370.347
				C512,342.187,506.88,319.147,496.64,300.373z M370.347,494.933c-26.453,0-46.933-5.12-64-14.507l-2.56-1.707l-3.413,0.853
				c-14.507,2.56-29.013,4.267-43.52,4.267c-124.587,0-226.133-101.547-226.133-226.133c0-14.507,1.707-29.013,4.267-43.52
				l0.853-3.413l-1.707-2.56c-11.093-19.627-17.067-41.813-17.067-64c0-69.973,57.173-127.147,127.147-127.147
				c22.187,0,44.373,5.973,64,17.067l2.56,1.707l3.413-0.853c14.507-2.56,29.013-4.267,43.52-4.267
				c124.587,0,226.133,101.547,226.133,226.133c0,14.507-1.707,29.013-4.267,43.52l-0.853,3.413l1.707,2.56
				c9.387,17.067,14.507,37.547,14.507,64C494.933,440.32,440.32,494.933,370.347,494.933z"/>
                <path d="M278.187,215.04c-64-12.8-73.387-29.013-74.24-33.28c-1.707-5.973,2.56-11.093,6.827-14.507
				c11.093-9.387,37.547-17.067,60.587-12.8c8.533,1.707,20.48,5.973,26.453,16.213c14.507,28.16,29.867,50.347,61.44,42.667
				c10.24-2.56,17.92-9.387,23.04-19.627c5.973-13.653,5.973-32.427-1.707-46.933c-8.533-16.213-45.227-58.027-116.907-58.027
				c-68.267,0-146.773,24.747-146.773,94.72c0,55.467,48.64,94.72,133.12,106.667c42.667,5.973,56.32,19.627,60.587,27.307
				c2.56,5.12,2.56,10.24,0.853,15.36c-6.827,16.213-29.867,31.573-65.707,28.16c-40.96-4.267-54.613-40.96-57.173-48.64
				c-6.827-21.333-29.867-24.747-41.813-23.893c-5.973,0.853-19.627,5.12-28.16,17.92c-5.12,7.68-10.24,22.187-2.56,44.373
				c9.387,29.013,40.96,76.8,145.92,76.8c87.893,0,140.8-55.467,141.653-106.667C403.627,264.533,365.227,232.107,278.187,215.04z
				 M261.12,410.453c-69.973,0-116.053-23.04-129.707-64.853c-4.267-12.8-4.267-23.04,0.853-29.867s12.8-10.24,16.213-10.24
				c0,0,0.853,0,2.56,0c5.12,0,17.92,0.853,19.627,11.093c3.413,9.387,20.48,55.467,71.68,60.587
				c45.227,4.267,74.24-17.067,83.627-39.253c4.267-10.24,3.413-21.333-1.707-30.72c-6.827-12.8-25.6-29.013-72.533-35.84
				c-44.373-6.827-118.613-26.453-118.613-89.6c0-57.173,69.973-77.653,129.707-77.653c63.147,0,94.72,34.987,101.547,48.64
				c4.267,9.387,5.12,23.04,0.853,32.427c-2.56,5.973-6.827,9.387-11.947,10.24c-15.36,3.413-24.747,0-42.667-34.133
				c-6.827-12.8-20.48-21.333-38.4-24.747c-26.453-4.267-58.88,2.56-75.093,17.067c-10.24,9.387-14.507,20.48-11.947,31.573
				c5.973,20.48,34.133,34.987,87.893,45.227c98.133,19.627,111.787,55.467,111.787,88.747
				C384.853,363.52,338.773,410.453,261.12,410.453z"/>
            </g>
        </g>

        <g id="view">
            <path d="M441.6,186.5c-102.8-102.8-270.1-102.8-372.9,0L0,255.1l70.4,70.4c51.4,51.4,118.9,77.1,186.5,77.1s135.1-25.7,186.5-77.1
		l68.7-68.7L441.6,186.5z M431.1,313.3c-96.1,96.1-252.4,96.1-348.5,0l-58.2-58.2l56.4-56.4c96.1-96.1,252.4-96.1,348.5,0l58.2,58.2
		L431.1,313.3z"/>
            <path d="M247.1,186.6c-33.4,0-60.5,27.2-60.5,60.5c0,4.8,3.9,8.6,8.6,8.6s8.6-3.9,8.6-8.6c0-23.8,19.4-43.2,43.2-43.2
		c4.8,0,8.6-3.9,8.6-8.6S251.9,186.6,247.1,186.6z"/>
            <path d="M255.8,143.3c-62,0-112.4,50.4-112.4,112.4s50.4,112.4,112.4,112.4s112.4-50.4,112.4-112.4S317.8,143.3,255.8,143.3z
		 M255.8,350.9c-52.5,0-95.1-42.7-95.1-95.1s42.7-95.1,95.1-95.1s95.1,42.7,95.1,95.1S308.2,350.9,255.8,350.9z"/>
        </g>

    </defs>
</svg>